<svg xmlns="http://www.w3.org/2000/svg" xmlns:xlink="http://www.w3.org/1999/xlink" width="450" zoomAndPan="magnify" viewBox="0 0 337.5 149.999998" height="200" preserveAspectRatio="xMidYMid meet" version="1.0"><defs><g/><clipPath id="id1"><path d="M 40.285156 34.648438 L 114.535156 34.648438 L 114.535156 115.648438 L 40.285156 115.648438 Z M 40.285156 34.648438 " clip-rule="nonzero"/></clipPath></defs><g clip-path="url(#id1)"><path fill="#de7127" d="M 93.828125 49.515625 L 82.488281 52.226562 C 82.175781 50.570312 81.523438 47.867188 80.273438 45.070312 C 79.023438 42.273438 77.175781 39.390625 74.457031 37.363281 C 71.226562 34.960938 67.355469 34.144531 62.945312 34.960938 C 58.496094 35.804688 55.074219 38.097656 53.054688 41.585938 C 50.480469 46.039062 50.386719 52.007812 52.769531 59.324219 L 52.765625 59.324219 L 40.285156 62.308594 L 45.964844 107.628906 C 68.042969 102.378906 98.96875 107.472656 98.96875 107.472656 C 60.660156 106.246094 53.71875 111.335938 54.371094 115.648438 L 114.535156 115.648438 Z M 57.601562 70.984375 C 55.800781 70.984375 54.34375 69.523438 54.34375 67.722656 C 54.34375 65.921875 55.800781 64.464844 57.601562 64.464844 C 59.410156 64.464844 60.863281 65.921875 60.863281 67.722656 C 60.871094 69.523438 59.410156 70.984375 57.601562 70.984375 Z M 57.148438 58.28125 C 55.097656 52.144531 55.019531 47.152344 56.9375 43.832031 C 58.640625 40.882812 61.589844 39.777344 63.769531 39.367188 C 66.929688 38.785156 69.546875 39.304688 71.765625 40.949219 C 76.070312 44.148438 77.644531 50.683594 78.117188 53.265625 L 78.113281 53.265625 Z M 76.050781 87.308594 C 74.257812 87.941406 72.175781 86.636719 71.398438 84.410156 C 70.621094 82.175781 71.441406 79.863281 73.238281 79.230469 C 75.03125 78.613281 77.113281 79.914062 77.890625 82.136719 C 78.679688 84.378906 77.84375 86.691406 76.050781 87.308594 Z M 82.628906 65.734375 C 80.820312 65.734375 79.367188 64.277344 79.367188 62.472656 C 79.367188 60.675781 80.824219 59.21875 82.628906 59.21875 C 84.429688 59.21875 85.886719 60.675781 85.886719 62.472656 C 85.886719 64.285156 84.433594 65.734375 82.628906 65.734375 Z M 82.628906 65.734375 " fill-opacity="1" fill-rule="nonzero"/></g><g fill="#de7127" fill-opacity="1"><g transform="translate(120.321219, 94.799376)"><g><path d="M 13.949219 -34.945312 L 0.75 -34.945312 C 2.550781 -32.847656 2.601562 -29.746094 2.601562 -29.296875 L 2.601562 -5.75 C 2.601562 -5.300781 2.550781 -2.199219 0.75 -0.101562 L 11.898438 -0.101562 C 11.898438 -0.101562 28.648438 -0.148438 28.648438 -19.347656 C 28.648438 -34.945312 13.949219 -34.945312 13.949219 -34.945312 Z M 10.699219 -3.449219 L 9.300781 -3.449219 L 9.300781 -31.546875 L 11.597656 -31.546875 C 11.597656 -31.546875 21.746094 -31.546875 21.746094 -18.199219 C 21.746094 -4.199219 12.648438 -3.449219 10.699219 -3.449219 Z M 10.699219 -3.449219 "/></g></g></g><g fill="#de7127" fill-opacity="1"><g transform="translate(149.766658, 94.799376)"><g><path d="M 16.097656 -35.597656 C 7.699219 -35.597656 0.949219 -30.796875 0.949219 -17.449219 C 0.949219 -4.148438 7.699219 0.550781 16.097656 0.550781 C 24.496094 0.550781 31.296875 -4.148438 31.296875 -17.449219 C 31.296875 -30.597656 24.496094 -35.597656 16.097656 -35.597656 Z M 25.496094 -8.847656 C 25.496094 -5.648438 24.496094 -3.300781 21.449219 -3.300781 C 12.5 -3.300781 9.347656 -9.300781 7.550781 -16 C 6.648438 -19.296875 6.199219 -22.347656 6.199219 -24.847656 C 6.097656 -28.648438 7.199219 -30.546875 9.398438 -30.546875 C 20.597656 -30.546875 22.898438 -25.699219 24.847656 -18.25 C 25.648438 -15.398438 25.496094 -11.449219 25.496094 -8.847656 Z M 25.496094 -8.847656 "/></g></g></g><g fill="#de7127" fill-opacity="1"><g transform="translate(182.061653, 94.799376)"><g><path d="M 15.046875 -20.699219 C 18.5 -25.246094 20.746094 -28.148438 27.246094 -34.898438 L 17.25 -34.945312 C 18.148438 -33.796875 18.75 -32.496094 19 -31.046875 C 19 -30.648438 18.847656 -30.195312 18.347656 -29.648438 C 13.199219 -23.546875 9.050781 -19.597656 8.75 -19.296875 L 8.75 -29.246094 C 8.75 -29.246094 8.75 -32.046875 10.597656 -34.945312 L 0.75 -34.945312 C 2.550781 -32.847656 2.601562 -29.746094 2.601562 -29.296875 L 2.601562 -5.800781 C 2.601562 -5.300781 2.601562 -2.199219 0.75 -0.101562 L 10.597656 -0.101562 C 8.75 -3 8.75 -5.800781 8.75 -5.800781 L 8.75 -17.347656 C 10.398438 -14.796875 18.796875 -2.25 21.699219 -0.851562 C 23.246094 -0.0507812 25.148438 0.148438 26.796875 0.148438 C 28.746094 0.148438 30.296875 -0.148438 30.296875 -0.148438 C 23.398438 -5.550781 15.046875 -20.699219 15.046875 -20.699219 Z M 15.046875 -20.699219 "/></g></g></g><g fill="#de7127" fill-opacity="1"><g transform="translate(211.85704, 94.799376)"><g><path d="M 32.445312 -0.101562 C 29.496094 -2.351562 27.945312 -7.300781 26.347656 -11.148438 L 17.449219 -35.546875 L 11.898438 -35.546875 C 12.148438 -34.746094 12.25 -34.097656 12.25 -33.347656 C 12.25 -32.195312 11.949219 -30.945312 11.199219 -28.945312 L 3.75 -7.097656 C 2.550781 -3.851562 1.351562 -2.199219 -0.648438 -0.101562 L 8.148438 -0.101562 C 7.5 -1 7.199219 -1.851562 7.199219 -2.800781 C 7.199219 -3.949219 7.597656 -5.300781 8.148438 -7.097656 L 9 -10.300781 L 19.847656 -10.300781 C 19.847656 -10.300781 21.148438 -7.550781 21.996094 -4.398438 C 22.347656 -2.851562 21.949219 -1.449219 20.746094 -0.101562 Z M 10.148438 -13.648438 L 14.296875 -24.949219 L 18.648438 -13.597656 Z M 10.148438 -13.648438 "/></g></g></g><g fill="#de7127" fill-opacity="1"><g transform="translate(243.652111, 94.799376)"><g><path d="M 22.648438 -34.945312 C 23.898438 -32.847656 24.398438 -31.195312 24.398438 -27.945312 L 24.398438 -10.898438 L 7.699219 -34.945312 L 0.851562 -34.945312 C 2.050781 -32.847656 2.601562 -31.195312 2.601562 -27.945312 L 2.601562 -7.097656 C 2.601562 -3.851562 2.050781 -2.199219 0.851562 -0.101562 L 8.550781 -0.101562 C 7.347656 -2.199219 6.75 -3.851562 6.75 -7.097656 L 6.75 -23.847656 L 21.699219 -3.101562 C 23.296875 -0.550781 25.648438 0.648438 28.648438 0.550781 L 28.648438 -28.246094 C 28.648438 -31.148438 29.195312 -32.847656 30.398438 -34.945312 Z M 22.648438 -34.945312 "/></g></g></g></svg>